<svg xmlns="http://www.w3.org/2000/svg" width="792" height="716" viewBox="0 0 792 716" fill="none" role="img" aria-labelledby="logo-title logo-desc">
<title id="logo-title">00CLAUDE</title>
<desc id="logo-desc">00CLAUDE logo — a stylized red character with atmospheric glow effects</desc>
<defs>
  <!-- Red glow backdrop blur -->
  <filter id="glowBlur" x="-20%" y="-20%" width="140%" height="140%">
    <feGaussianBlur stdDeviation="10" />
  </filter>
  <!-- Soft pink highlight glow -->
  <filter id="softGlow" x="-15%" y="-15%" width="130%" height="130%">
    <feGaussianBlur stdDeviation="3" />
  </filter>
  <!-- White piping: dilate + blur at 35% white -->
  <filter id="whitePipe" x="-8%" y="-8%" width="116%" height="116%">
    <feMorphology in="SourceGraphic" operator="dilate" radius="2.2" result="dilated"/>
    <feGaussianBlur in="dilated" stdDeviation="2.5" result="blurDilated"/>
    <feColorMatrix in="blurDilated" type="matrix" result="whiteEdge"
      values="0 0 0 0 1
              0 0 0 0 1
              0 0 0 0 1
              0 0 0 0.35 0"/>
    <feMerge>
      <feMergeNode in="whiteEdge"/>
      <feMergeNode in="SourceGraphic"/>
    </feMerge>
  </filter>
  <!-- Blue atmospheric glow for dark bg -->
  <filter id="blueAtmos" x="-18%" y="-18%" width="136%" height="136%">
    <feGaussianBlur in="SourceGraphic" stdDeviation="10" result="blur"/>
    <feColorMatrix in="blur" type="matrix" result="bluedBlur"
      values="0.08 0 0 0 0.12
              0 0.08 0 0 0.18
              0 0 0.25 0 0.45
              0 0 0 0.3 0"/>
    <feMerge>
      <feMergeNode in="bluedBlur"/>
      <feMergeNode in="SourceGraphic"/>
    </feMerge>
  </filter>
</defs>

<!-- LAYER 0: Blue atmospheric glow (dark bg separation) -->
<g opacity="0.08" filter="url(#blueAtmos)">
  <path d="M 304 23 L 294 32 L 282 54 L 246 151 L 197 167 L 157 185 L 136 199 L 126 209 L 119 223 L 122 245 L 134 263 L 162 287 L 206 308 L 211 330 L 199 328 L 149 330 L 140 336 L 137 353 L 139 373 L 145 391 L 157 411 L 186 448 L 202 492 L 155 515 L 100 550 L 63 580 L 20 624 L 87 602 L 105 599 L 102 603 L 106 616 L 106 638 L 66 691 L 77 685 L 111 675 L 174 663 L 249 655 L 353 649 L 486 651 L 591 660 L 669 673 L 701 682 L 721 691 L 704 665 L 678 633 L 684 631 L 681 618 L 684 601 L 676 596 L 680 595 L 720 607 L 769 625 L 727 581 L 693 553 L 635 516 L 585 492 L 594 461 L 603 442 L 627 410 L 639 387 L 644 367 L 644 343 L 640 333 L 631 330 L 572 329 L 571 327 L 579 306 L 625 284 L 644 270 L 658 254 L 665 240 L 667 228 L 660 207 L 643 191 L 609 172 L 539 147 L 509 64 L 497 38 L 485 24 L 476 21 L 463 22 L 453 26 L 418 50 L 402 55 L 391 55 L 370 48 L 330 23 L 324 21 Z" fill="#1a2844"/>
</g>

<!-- LAYER 1: Red glow backdrop -->
<path d="M 305 22 L 293 33 L 277 64 L 246 150 L 158 184 L 132 202 L 119 222 L 121 244 L 136 266 L 163 288 L 205 308 L 210 329 L 148 330 L 141 334 L 137 348 L 139 375 L 145 392 L 185 447 L 202 492 L 147 519 L 98 551 L 59 583 L 20 624 L 48 615 L 45 621 L 58 630 L 60 637 L 72 647 L 75 663 L 78 659 L 79 666 L 76 665 L 77 671 L 65 691 L 102 678 L 106 679 L 100 681 L 106 684 L 120 682 L 124 685 L 127 681 L 205 673 L 206 670 L 219 671 L 221 668 L 287 667 L 291 664 L 308 665 L 311 661 L 329 663 L 334 660 L 348 662 L 349 659 L 385 658 L 395 661 L 409 658 L 417 662 L 435 659 L 473 666 L 484 662 L 485 665 L 497 666 L 528 665 L 615 675 L 617 678 L 621 675 L 624 678 L 637 677 L 642 681 L 647 678 L 665 683 L 684 681 L 680 678 L 683 677 L 722 691 L 712 677 L 717 673 L 713 669 L 715 667 L 718 671 L 720 667 L 717 654 L 723 647 L 720 647 L 726 638 L 732 636 L 732 628 L 736 624 L 732 621 L 744 621 L 736 615 L 770 627 L 724 576 L 684 546 L 634 515 L 586 492 L 604 441 L 637 393 L 644 370 L 645 347 L 638 331 L 573 329 L 579 306 L 624 285 L 657 256 L 667 233 L 666 219 L 659 205 L 645 192 L 614 174 L 540 147 L 505 54 L 495 34 L 484 23 L 459 23 L 415 51 L 394 55 L 377 51 L 326 21 Z" fill="#ff2136" opacity="0.18" filter="url(#glowBlur)"/>

<!-- LAYER 2: Black silhouette (mostly transparent for dark bg) -->
<path d="M 304 23 L 294 32 L 282 54 L 246 151 L 197 167 L 157 185 L 136 199 L 126 209 L 119 223 L 122 245 L 134 263 L 162 287 L 206 308 L 211 330 L 199 328 L 149 330 L 140 336 L 137 353 L 139 373 L 145 391 L 157 411 L 186 448 L 202 492 L 155 515 L 100 550 L 63 580 L 20 624 L 87 602 L 105 599 L 102 603 L 106 616 L 106 638 L 66 691 L 77 685 L 111 675 L 174 663 L 249 655 L 353 649 L 486 651 L 591 660 L 669 673 L 701 682 L 721 691 L 704 665 L 678 633 L 684 631 L 681 618 L 684 601 L 676 596 L 680 595 L 720 607 L 769 625 L 727 581 L 693 553 L 635 516 L 585 492 L 594 461 L 603 442 L 627 410 L 639 387 L 644 367 L 644 343 L 640 333 L 631 330 L 572 329 L 571 327 L 579 306 L 625 284 L 644 270 L 658 254 L 665 240 L 667 228 L 660 207 L 643 191 L 609 172 L 539 147 L 509 64 L 497 38 L 485 24 L 476 21 L 463 22 L 453 26 L 418 50 L 402 55 L 391 55 L 370 48 L 330 23 L 324 21 Z" fill="#060610" opacity="0.03"/>

<!-- LAYER 3: Dark red detail shapes -->
<g fill="#8f0916" opacity="0.2">
  <path d="M 481 22 L 466 21 L 459 23 L 419 49 L 401 54 L 401 56 L 386 57 L 386 55 L 374 52 L 372 58 L 367 58 L 367 55 L 364 57 L 368 61 L 323 35 L 356 64 L 379 75 L 403 73 L 421 64 L 448 45 L 450 46 L 440 54 L 444 53 L 440 57 L 443 58 L 440 59 L 438 66 L 432 72 L 432 78 L 426 89 L 428 93 L 423 104 L 425 107 L 423 111 L 424 118 L 420 128 L 422 129 L 420 131 L 422 133 L 420 148 L 422 149 L 419 151 L 422 153 L 419 156 L 422 161 L 420 164 L 423 167 L 421 168 L 423 177 L 421 188 L 423 191 L 421 192 L 423 204 L 421 205 L 429 214 L 417 217 L 431 216 L 477 205 L 508 193 L 524 183 L 526 184 L 509 195 L 518 191 L 526 197 L 525 200 L 528 202 L 526 210 L 517 216 L 532 209 L 531 212 L 501 226 L 463 238 L 421 246 L 378 250 L 332 250 L 300 247 L 257 238 L 232 229 L 253 241 L 292 255 L 328 263 L 372 267 L 415 266 L 464 258 L 512 243 L 543 227 L 545 228 L 540 232 L 519 242 L 529 240 L 527 239 L 532 236 L 533 239 L 535 237 L 537 239 L 555 228 L 560 234 L 554 240 L 552 247 L 547 247 L 545 252 L 538 257 L 527 271 L 522 269 L 512 280 L 509 280 L 504 286 L 496 287 L 486 297 L 484 295 L 481 298 L 472 300 L 469 304 L 467 302 L 456 309 L 450 310 L 439 319 L 435 327 L 400 330 L 360 328 L 386 330 L 436 328 L 438 330 L 435 332 L 436 334 L 429 340 L 436 340 L 436 342 L 431 342 L 491 330 L 489 328 L 497 326 L 494 324 L 497 321 L 484 322 L 484 320 L 528 313 L 562 303 L 565 304 L 558 307 L 572 305 L 574 311 L 577 305 L 579 306 L 577 310 L 579 306 L 615 290 L 637 276 L 653 261 L 665 241 L 667 233 L 665 216 L 659 205 L 645 192 L 605 170 L 539 146 L 527 109 L 495 34 Z"/>
  <path d="M 584 493 L 558 545 L 588 514 L 595 510 L 635 535 L 633 536 L 615 525 L 634 542 L 644 559 L 647 558 L 652 566 L 650 569 L 653 570 L 653 575 L 658 579 L 661 586 L 709 603 L 706 604 L 633 582 L 591 572 L 619 594 L 617 595 L 609 588 L 615 598 L 613 600 L 616 604 L 614 605 L 617 606 L 617 631 L 622 637 L 620 638 L 622 639 L 622 647 L 626 650 L 625 662 L 651 669 L 648 670 L 657 670 L 652 671 L 666 671 L 664 673 L 670 672 L 668 674 L 674 673 L 673 675 L 676 674 L 694 681 L 699 680 L 698 682 L 702 681 L 701 683 L 711 685 L 721 691 L 704 665 L 706 664 L 704 665 L 702 662 L 705 662 L 708 653 L 710 662 L 709 648 L 712 645 L 711 641 L 715 635 L 717 639 L 718 632 L 724 628 L 724 620 L 731 616 L 722 610 L 730 609 L 729 611 L 744 616 L 747 615 L 746 617 L 750 616 L 749 618 L 755 620 L 750 618 L 754 617 L 757 621 L 766 625 L 767 623 L 769 626 L 767 622 L 723 577 L 681 544 L 632 514 L 586 492 L 586 494 Z"/>
  <path d="M 626 340 L 598 365 L 559 383 L 506 394 L 455 395 L 422 550 L 420 552 L 367 557 L 330 565 L 350 647 L 349 650 L 369 650 L 365 649 L 349 583 L 350 578 L 436 565 L 438 563 L 473 424 L 535 412 L 575 396 L 592 385 L 609 369 Z"/>
  <path d="M 157 343 L 174 370 L 188 383 L 206 395 L 251 413 L 302 422 L 342 534 L 330 490 L 331 486 L 340 517 L 349 520 L 352 530 L 344 484 L 323 396 L 265 392 L 220 382 L 183 365 Z"/>
  <path d="M 199 572 L 183 579 L 180 578 L 186 575 L 86 603 L 79 607 L 69 608 L 71 610 L 63 610 L 65 611 L 58 616 L 56 614 L 60 620 L 65 622 L 65 626 L 70 628 L 73 638 L 76 640 L 75 643 L 81 651 L 84 664 L 65 691 L 78 684 L 80 685 L 78 684 L 84 680 L 108 674 L 112 668 L 111 665 L 116 663 L 116 658 L 122 650 L 121 647 L 132 635 L 118 649 L 117 647 L 159 604 Z"/>
  <path d="M 123 213 L 119 222 L 119 237 L 123 248 L 138 268 L 160 286 L 165 286 L 163 282 L 165 281 L 204 299 L 255 313 L 329 323 L 329 325 L 303 323 L 295 328 L 302 330 L 302 332 L 289 329 L 338 340 L 357 342 L 350 341 L 357 340 L 348 329 L 351 326 L 356 327 L 354 325 L 345 324 L 339 320 L 324 319 L 340 322 L 332 323 L 277 312 L 227 296 L 198 284 L 164 265 L 139 240 L 135 229 L 136 216 L 141 208 L 155 195 L 194 173 L 243 154 L 219 159 L 174 176 L 142 194 Z"/>
  <path d="M 194 499 L 191 499 L 191 497 L 158 513 L 98 551 L 57 585 L 20 624 L 23 624 L 25 620 L 27 622 L 32 620 L 27 620 L 130 550 L 192 512 L 194 509 L 191 504 L 194 503 Z"/>
  <path d="M 637 331 L 620 329 L 627 330 L 620 331 L 620 333 L 623 331 L 629 339 L 627 343 L 631 343 L 637 350 L 638 358 L 639 346 L 641 346 L 639 369 L 632 387 L 612 415 L 549 474 L 541 516 L 526 572 L 550 521 L 563 480 L 570 466 L 588 442 L 589 444 L 583 452 L 586 451 L 585 454 L 588 456 L 588 462 L 586 463 L 589 466 L 584 480 L 584 488 L 590 466 L 599 446 L 602 445 L 600 450 L 603 444 L 601 443 L 605 440 L 605 435 L 625 410 L 626 412 L 624 414 L 629 407 L 628 405 L 631 404 L 629 404 L 631 399 L 636 395 L 635 392 L 637 392 L 638 386 L 639 388 L 638 384 L 640 385 L 641 376 L 642 379 L 643 366 L 644 370 L 644 352 L 645 359 L 644 341 Z"/>
  <path d="M 236 197 L 246 210 L 259 220 L 277 228 L 299 234 L 323 238 L 376 237 L 371 236 L 378 233 L 380 229 L 393 229 L 338 226 L 300 220 L 257 208 Z"/>
  <path d="M 182 420 L 213 457 L 224 474 L 238 516 L 261 569 L 240 472 Z"/>
  <path d="M 197 509 L 228 544 L 211 509 L 210 512 Z"/>
  <path d="M 293 366 L 304 377 L 317 381 L 332 381 L 350 374 L 336 376 L 313 373 L 316 374 L 312 375 Z"/>
  <path d="M 496 363 L 487 369 L 486 367 L 482 369 L 486 369 L 479 373 L 477 371 L 464 374 L 477 373 L 470 376 L 445 377 L 437 375 L 458 380 L 471 379 L 481 376 L 483 372 L 490 370 Z"/>
  <path d="M 87 582 L 45 613 L 60 608 L 63 599 L 69 597 L 70 594 Z"/>
</g>

<!-- LAYER 4: Bright red main strokes (with white piping filter) -->
<g fill="#f61d2f" opacity="0.82" filter="url(#whitePipe)">
  <path d="M 324 35 L 356 64 L 380 75 L 395 75 L 405 72 L 468 33 L 482 35 L 480 36 L 483 41 L 482 55 L 476 60 L 469 78 L 466 100 L 463 105 L 464 114 L 462 123 L 459 124 L 461 125 L 459 129 L 461 134 L 458 139 L 461 144 L 458 150 L 460 154 L 459 164 L 462 169 L 461 171 L 459 169 L 459 172 L 463 173 L 460 178 L 464 188 L 463 191 L 468 200 L 467 204 L 471 205 L 455 210 L 485 202 L 517 188 L 529 180 L 541 167 L 542 169 L 541 166 L 544 160 L 544 170 L 551 179 L 553 190 L 557 188 L 552 195 L 559 184 L 558 174 L 552 163 L 555 163 L 550 161 L 556 160 L 552 156 L 583 167 L 609 181 L 605 181 L 610 192 L 610 209 L 600 238 L 597 242 L 596 239 L 593 246 L 575 268 L 570 268 L 549 288 L 543 289 L 539 297 L 532 301 L 548 295 L 550 297 L 504 313 L 461 323 L 527 313 L 554 306 L 596 290 L 597 292 L 593 296 L 589 296 L 590 302 L 633 279 L 653 261 L 660 251 L 666 237 L 667 224 L 662 210 L 650 196 L 636 186 L 614 174 L 585 162 L 542 149 L 539 146 L 508 61 L 495 34 L 485 24 L 478 21 L 459 23 L 428 43 L 427 46 L 420 48 L 422 49 L 413 55 L 422 54 L 422 56 L 398 66 L 379 66 L 370 63 Z"/>
  <path d="M 623 343 L 610 358 L 609 356 L 606 361 L 604 360 L 598 366 L 575 378 L 527 391 L 498 394 L 498 396 L 477 395 L 485 396 L 465 397 L 455 395 L 422 551 L 361 558 L 330 565 L 350 650 L 365 648 L 348 580 L 350 578 L 437 564 L 473 423 L 527 414 L 558 404 L 580 393 L 609 369 L 617 357 L 615 357 L 617 352 L 621 350 L 619 347 Z"/>
  <path d="M 574 197 L 573 199 L 573 192 L 570 199 L 557 203 L 552 207 L 550 206 L 552 203 L 551 205 L 547 204 L 551 199 L 544 206 L 542 205 L 547 200 L 541 208 L 540 206 L 539 209 L 530 212 L 526 217 L 525 215 L 519 220 L 512 221 L 512 223 L 509 222 L 482 233 L 440 243 L 396 249 L 330 250 L 299 247 L 260 239 L 232 229 L 268 247 L 308 259 L 354 266 L 413 266 L 459 259 L 514 242 L 551 222 L 568 207 L 572 201 L 570 200 Z"/>
  <path d="M 592 573 L 629 602 L 666 639 L 665 641 L 648 624 L 654 631 L 652 632 L 654 639 L 660 642 L 660 646 L 662 645 L 683 669 L 681 670 L 686 673 L 686 676 L 706 682 L 721 691 L 702 663 L 702 656 L 707 643 L 705 640 L 710 635 L 709 632 L 712 629 L 713 631 L 713 626 L 715 624 L 717 626 L 717 620 L 722 617 L 719 615 L 722 612 L 724 613 L 723 611 L 712 607 L 714 606 L 709 607 L 710 605 L 707 606 L 707 604 L 704 605 L 671 593 L 605 576 L 613 579 L 610 581 Z"/>
  <path d="M 158 343 L 163 355 L 175 371 L 188 383 L 208 396 L 248 412 L 304 423 L 342 532 L 321 456 L 322 453 L 329 475 L 330 471 L 341 482 L 348 508 L 324 397 L 264 392 L 220 382 L 186 367 L 173 358 Z"/>
  <path d="M 197 573 L 170 585 L 139 607 L 137 606 L 140 603 L 139 595 L 140 597 L 137 598 L 137 602 L 134 604 L 132 600 L 105 599 L 116 595 L 124 598 L 123 593 L 168 580 L 87 603 L 80 607 L 77 606 L 77 608 L 74 607 L 69 611 L 67 609 L 66 611 L 69 614 L 66 615 L 73 622 L 73 627 L 81 640 L 81 647 L 84 648 L 84 654 L 85 649 L 87 655 L 90 654 L 91 656 L 66 691 L 69 687 L 75 687 L 83 680 L 85 681 L 161 602 Z"/>
  <path d="M 120 219 L 119 237 L 124 249 L 129 253 L 127 254 L 154 275 L 182 290 L 219 304 L 251 312 L 339 324 L 284 314 L 209 289 L 161 263 L 147 251 L 139 240 L 135 230 L 135 219 L 140 209 L 150 199 L 185 177 L 238 156 L 213 161 L 158 184 L 138 197 L 125 210 Z"/>
  <path d="M 559 543 L 594 509 L 695 574 L 761 621 L 759 622 L 762 621 L 762 623 L 769 625 L 738 591 L 692 552 L 639 518 L 606 501 L 596 499 L 594 496 L 591 497 L 587 508 L 581 512 L 576 512 Z"/>
  <path d="M 189 513 L 180 516 L 177 511 L 178 503 L 123 534 L 73 571 L 21 622 L 24 623 L 20 624 L 41 612 L 125 553 Z"/>
  <path d="M 237 197 L 241 204 L 256 218 L 291 232 L 325 238 L 360 238 L 343 237 L 348 236 L 348 227 L 375 228 L 336 226 L 290 218 L 254 207 Z"/>
  <path d="M 639 332 L 641 334 L 641 360 L 632 388 L 609 419 L 550 472 L 527 571 L 547 528 L 568 469 L 589 439 L 616 411 L 636 383 L 638 374 L 641 373 L 644 341 L 643 344 Z"/>
  <path d="M 196 433 L 209 446 L 207 448 L 204 446 L 226 478 L 240 521 L 261 568 L 240 472 Z"/>
  <path d="M 483 329 L 460 331 L 448 336 L 447 340 L 439 341 L 483 332 L 481 331 Z"/>
  <path d="M 305 333 L 343 340 L 339 340 L 339 338 L 343 338 L 326 331 Z"/>
</g>

<!-- LAYER 5: Pink highlight/glow strokes -->
<g fill="#ff6a73" opacity="0.6" filter="url(#softGlow)">
  <path d="M 325 36 L 345 55 L 363 68 L 381 75 L 394 75 L 417 66 L 467 33 L 480 33 L 488 43 L 503 79 L 502 82 L 500 77 L 496 101 L 492 112 L 493 118 L 490 121 L 492 123 L 490 124 L 490 140 L 488 146 L 490 163 L 489 177 L 497 196 L 483 202 L 507 193 L 530 179 L 538 171 L 543 162 L 542 152 L 579 165 L 600 175 L 626 191 L 635 199 L 633 200 L 629 197 L 632 200 L 631 217 L 625 236 L 606 260 L 595 271 L 591 272 L 592 273 L 585 280 L 581 280 L 582 284 L 549 298 L 505 313 L 466 322 L 512 316 L 557 305 L 599 289 L 612 282 L 617 284 L 617 287 L 613 289 L 618 288 L 642 272 L 660 251 L 666 237 L 667 224 L 663 212 L 651 197 L 636 186 L 614 174 L 585 162 L 542 149 L 539 146 L 508 61 L 496 36 L 485 24 L 478 21 L 459 23 L 455 25 L 455 27 L 451 27 L 452 28 L 441 37 L 444 42 L 423 56 L 399 66 L 378 66 L 372 64 Z"/>
  <path d="M 614 357 L 612 356 L 607 360 L 609 356 L 605 362 L 604 360 L 602 364 L 600 363 L 599 366 L 597 365 L 596 368 L 590 369 L 590 371 L 585 372 L 585 374 L 583 373 L 578 377 L 576 376 L 576 378 L 574 377 L 573 379 L 571 378 L 571 380 L 566 380 L 566 382 L 563 381 L 563 383 L 560 382 L 560 384 L 557 383 L 554 384 L 554 386 L 550 385 L 550 387 L 547 386 L 546 388 L 543 387 L 523 391 L 521 393 L 516 392 L 516 394 L 510 393 L 509 395 L 500 394 L 502 394 L 502 396 L 482 395 L 490 395 L 490 397 L 457 397 L 455 395 L 422 551 L 368 557 L 330 565 L 350 649 L 364 648 L 348 580 L 349 578 L 437 564 L 468 442 L 467 439 L 469 438 L 472 428 L 471 423 L 479 422 L 475 422 L 475 420 L 487 421 L 522 415 L 562 402 L 583 391 L 598 380 L 615 360 L 607 368 L 605 367 Z"/>
  <path d="M 572 197 L 569 201 L 559 206 L 551 207 L 539 214 L 536 213 L 540 210 L 539 209 L 531 214 L 529 213 L 528 216 L 520 220 L 514 220 L 512 223 L 510 222 L 510 224 L 508 223 L 507 225 L 505 224 L 479 234 L 441 243 L 398 249 L 315 249 L 275 243 L 236 231 L 245 236 L 248 235 L 247 237 L 266 246 L 313 260 L 356 266 L 386 267 L 421 265 L 471 256 L 516 241 L 542 228 L 566 209 L 564 208 L 570 204 L 568 203 L 572 201 L 570 201 Z"/>
  <path d="M 158 343 L 163 355 L 175 371 L 187 382 L 205 394 L 225 404 L 252 413 L 304 423 L 341 530 L 315 433 L 316 429 L 320 441 L 323 440 L 326 444 L 327 443 L 333 449 L 333 452 L 333 450 L 335 450 L 344 489 L 323 396 L 279 394 L 226 384 L 201 375 L 184 366 L 168 354 Z"/>
  <path d="M 123 213 L 120 219 L 121 221 L 119 222 L 119 237 L 121 238 L 121 243 L 138 263 L 170 284 L 197 296 L 234 308 L 266 315 L 333 323 L 283 314 L 211 290 L 165 266 L 142 245 L 135 230 L 135 219 L 139 210 L 156 194 L 173 183 L 223 161 L 209 166 L 209 164 L 166 180 L 142 194 Z"/>
  <path d="M 596 510 L 640 537 L 753 616 L 769 625 L 749 602 L 724 578 L 692 552 L 667 535 L 610 503 L 604 503 L 605 508 L 602 513 Z"/>
  <path d="M 179 519 L 167 526 L 162 524 L 160 518 L 165 511 L 123 534 L 93 555 L 65 578 L 23 621 L 35 616 L 95 573 Z"/>
  <path d="M 197 573 L 162 590 L 128 616 L 94 652 L 69 687 L 76 685 L 95 671 L 163 600 Z"/>
  <path d="M 592 573 L 626 599 L 656 628 L 701 677 L 719 690 L 718 685 L 691 649 L 693 648 L 697 653 L 700 648 L 701 655 L 702 643 L 703 645 L 701 647 L 699 645 L 691 649 L 674 629 L 646 603 L 617 584 Z"/>
  <path d="M 590 438 L 550 472 L 540 522 L 527 570 L 550 520 L 565 474 Z"/>
  <path d="M 209 445 L 226 461 L 221 467 L 212 456 L 226 478 L 237 513 L 260 566 L 248 517 L 240 472 Z"/>
  <path d="M 237 198 L 242 205 L 258 219 L 288 231 L 327 237 L 311 234 L 316 233 L 316 229 L 321 226 L 318 226 L 318 224 L 344 226 L 327 225 L 282 216 L 256 208 Z"/>
  <path d="M 589 513 L 570 528 L 572 521 L 559 543 Z"/>
</g>

<!-- LAYER 6: White eye fills and specular highlights -->
<g fill="#fff7f8">
  <path d="M 514 324 L 458 339 L 407 346 L 415 359 L 431 370 L 444 374 L 470 373 L 489 365 L 501 355 L 511 338 Z"/>
  <path d="M 271 324 L 276 342 L 284 355 L 301 368 L 315 373 L 338 374 L 355 369 L 371 356 L 377 345 L 333 340 L 285 329 Z"/>
  <path d="M 570 175 L 565 170 L 553 163 L 560 179 L 559 187 L 556 192 L 539 208 L 509 223 L 518 219 L 521 220 L 516 223 L 554 205 L 556 207 L 564 202 L 566 203 L 565 204 L 568 202 L 569 204 L 563 211 L 571 202 L 575 194 L 575 185 Z"/>
  <path d="M 624 342 L 607 359 L 591 370 L 582 374 L 609 358 L 612 361 L 598 374 L 605 369 L 615 359 Z"/>
</g>
</svg>
